<?xml version="1.0" encoding="UTF-8"?>
<svg width="600px" height="600px" viewBox="0 0 600 600" version="1.1" xmlns="http://www.w3.org/2000/svg" xmlns:xlink="http://www.w3.org/1999/xlink">
    <title>02</title>
    <defs>
        <linearGradient x1="5.88666729%" y1="6.21710883%" x2="68.284203%" y2="100%" id="linearGradient-1">
            <stop stop-color="#FF3838" offset="0%"></stop>
            <stop stop-color="#6900FF" offset="100%"></stop>
        </linearGradient>
    </defs>
    <g id="02" stroke="none" stroke-width="1" fill="none" fill-rule="evenodd">
        <rect id="矩形" fill="url(#linearGradient-1)" x="1" y="0" width="599" height="600"></rect>
        <path d="M238.523794,513.031989 L208.876569,481.421053 L198.764502,481.421053 L198.764502,527.513696 L208.831584,527.513696 L208.831584,496.070369 L238.777129,528 L248.590877,528 L248.590877,481.421053 L238.523794,481.421053 L238.523794,513.031989 Z M107.195959,481.421053 L90.0355142,509.060114 L71.2639097,481.421053 L60,481.421053 L60.389472,527.556189 L70.4565543,527.470023 L70.2044038,497.76299 L90.4155157,527.518417 L108.369111,498.601038 L108.614158,527.556189 L118.681241,527.470023 L118.291769,481.421053 L107.195959,481.421053 Z M175.204404,512.568112 C175.204404,515.336031 172.945703,517.586958 170.170863,517.586958 L149.507537,517.586958 C146.731513,517.586958 144.473996,515.336031 144.473996,512.568112 L144.473996,496.335947 C144.473996,493.569208 146.731513,491.318282 149.507537,491.318282 L170.170863,491.318282 C172.945703,491.318282 175.204404,493.569208 175.204404,496.335947 L175.204404,512.568112 Z M172.125326,481.421053 L147.553074,481.421053 C140.14837,482.381857 134.406913,488.696726 134.406913,496.335947 L134.406913,512.568112 C134.406913,520.87069 141.180649,527.624649 149.507537,527.624649 L170.170863,527.624649 C178.496567,527.624649 185.271486,520.87069 185.271486,512.568112 L185.271486,496.335947 C185.271486,488.696726 179.528845,482.381857 172.125326,481.421053 L172.125326,481.421053 Z M261.355852,527.513696 L271.422934,527.513696 L271.424118,481.421053 L261.357036,481.421053 L261.355852,527.513696 Z M326.731513,481.421053 L283.71202,481.421053 L283.71202,491.295856 L324.585273,491.295856 C327.122169,491.295856 329.263673,493.005001 329.263673,495.02812 C329.263673,497.05242 327.122169,498.761565 324.585273,498.761565 L283.71202,498.761565 L283.71202,498.850092 L283.71202,508.799257 L283.71202,508.887783 L323.876174,508.887783 C326.846342,508.887783 329.263673,510.849523 329.263673,513.262158 C329.263673,515.673611 326.846342,517.635352 323.876174,517.635352 L283.71202,517.635352 L283.71202,527.673043 L323.876174,527.673043 C332.39839,527.673043 339.330755,521.20945 339.330755,513.262158 C339.330755,509.749438 337.97293,506.528264 335.7237,504.024743 C337.964644,501.609748 339.330755,498.467658 339.330755,495.02812 C339.330755,488.118355 333.846184,482.397202 326.731513,481.421053 L326.731513,481.421053 Z M511.941441,481.421053 L500.215847,481.421053 L477.285534,528 L488.500908,528 L506.379923,491.68183 L528.255465,528 L540,528 L511.941441,481.421053 Z M414.097546,504.416619 C414.097546,517.244656 424.564754,527.681306 437.430353,527.681306 L465.190593,527.681306 L465.190593,517.643615 L437.430353,517.643615 C430.116802,517.643615 424.164628,511.709998 424.164628,504.416619 C424.164628,497.12324 430.116802,491.190804 437.430353,491.190804 L465.190593,491.190804 L465.190593,481.421053 L434.082551,481.421053 C422.802068,483.048754 414.097546,492.726439 414.097546,504.416619 L414.097546,504.416619 Z M396.384263,512.176236 C396.384263,514.944155 394.125562,517.195082 391.350722,517.195082 L365.425381,517.195082 C362.650541,517.195082 360.39184,514.944155 360.39184,512.176236 L360.39184,481.421053 L350.324757,481.421053 L350.324757,512.176236 C350.324757,520.478814 357.099676,527.232773 365.425381,527.232773 L391.350722,527.232773 C399.676426,527.232773 406.451346,520.478814 406.451346,512.176236 L406.451346,481.421053 L396.384263,481.421053 L396.384263,512.176236 Z M217.210656,354.105263 L217.210656,369.927806 L252.978017,369.927806 L252.978017,380.966495 L217.210656,380.966495 L217.210656,393.526788 L271.948052,393.526788 L271.948052,404.565477 L217.210656,404.565477 L217.210656,462.789474 L205.963164,462.789474 L205.963164,404.565477 L172.207792,404.565477 L172.207792,393.526788 L205.963164,393.526788 L205.963164,354.105263 L217.210656,354.105263 Z M232.085362,416.210526 C238.128043,427.146189 247.779417,435.924724 259.480519,441.059052 L259.480519,453.473684 C241.254324,447.036768 226.540756,433.44423 218.961039,416.210526 Z M386.906707,354.105263 L386.906707,414.815416 L402.857143,414.815416 L402.857143,426.177587 L386.906707,426.177587 L386.906707,462.789474 L375.509087,462.789474 L375.509087,426.177587 L343.636364,426.177587 L343.636364,414.815416 L375.509087,414.815416 L375.509087,354.105263 L386.906707,354.105263 Z M349.87013,385.157895 C356.121795,390.374621 363.557278,394.103604 371.688312,395.811719 L371.688312,406.894737 C363.817994,405.532094 356.441472,402.621082 349.87013,398.45232 Z M349.87013,357.210526 C356.121795,362.427253 363.557278,366.156236 371.688312,367.86435 L371.688312,378.947368 C363.817994,377.584726 356.441472,374.673714 349.87013,370.504951 Z M324.309454,365.091596 C330.441533,361.234082 335.898323,356.475435 340.455755,351 L324.494465,351 C317.48153,356.951986 308.928893,361.279188 299.485122,363.37562 L299.485122,374.740285 C304.05386,373.906811 308.45506,372.626202 312.655832,370.974943 L312.655832,387.060013 L294.36238,387.060013 L294.36238,398.178558 L312.031935,398.178558 L293.766234,430.334971 L293.766234,453.670286 L312.655832,420.416629 L312.655832,462.789474 L324.309454,462.789474 L324.309454,412.606486 L335.655753,424.219232 L335.655753,407.912556 L326.144145,398.178558 L340.519481,398.178558 L340.519481,387.060013 L324.309454,387.060013 L324.309454,365.091596 Z M121.396923,387.001135 L108.720161,387.001135 C108.782692,387.147745 108.851275,387.291343 108.914815,387.437953 L108.326817,387.437953 C111.1246,380.606529 112.824047,373.219794 113.208314,365.491639 L152.266338,365.491639 L152.266338,354.105263 L62.5960687,354.105263 L62.5960687,365.491639 L101.750916,365.491639 C100.285459,389.909235 83.0126259,410.151459 60,416.178536 L60,427.877212 C75.5895235,424.526269 89.1840883,415.797953 98.747384,403.757856 L98.747384,462.789474 L110.182593,462.789474 L110.182593,390.165301 C119.158898,408.406197 136.183622,422.028878 156.623377,426.422157 L156.623377,414.724486 C141.397948,410.736895 128.684877,400.527415 121.396923,387.001135 M454.845258,354.105263 L454.845258,363.624714 L465.194805,363.624714 L465.194805,374.913257 L454.845258,374.913257 L454.845258,399.926455 L465.194805,393.183593 L465.194805,406.631485 L454.845258,413.374346 L454.845258,462.789474 L434.232254,462.789474 L434.232254,451.50093 L443.62591,451.50093 L443.62591,420.683675 L424.675325,433.029493 L424.675325,419.581601 L443.62591,407.235784 L443.62591,374.913257 L426.778087,374.913257 L426.778087,363.624714 L443.62591,363.624714 L443.62591,354.105263 L454.845258,354.105263 Z M504.756344,351 L504.756344,362.719501 L529.781336,362.719501 L529.781336,374.063826 L504.756344,374.063826 L504.756344,385.328114 L530.126439,385.328114 L529.952884,391.168855 C529.451281,407.994753 519.172425,424.410459 506.623311,438.427038 C509.06612,440.748128 511.6253,443.035201 514.314898,445.26925 C522.56527,452.123467 531.302197,458.00923 540,462.692428 L518.459145,462.692428 C514.574728,459.983156 510.75251,457.074791 507.033623,453.985341 C504.142381,451.583213 501.398611,449.129062 498.775225,446.643895 C492.618545,452.706741 486.298343,458.157299 480.581067,462.789474 L462.077922,462.789474 C469.483594,457.225862 480.492785,448.710865 490.834844,438.575108 C480.320234,427.024686 472.718936,414.911 468.545596,403.078445 L480.771677,403.078445 C484.588878,412.073668 490.711449,421.360027 498.732087,430.316231 C508.013756,419.889336 515.661201,408.290892 517.919419,396.672439 L468.173406,396.672439 L468.173406,385.328114 L493.381986,385.328114 L493.381986,374.063826 L468.35599,374.063826 L468.35599,362.719501 L493.381986,362.719501 L493.381986,351 L504.756344,351 Z" id="LOGO" fill="#FFFFFF"></path>
        <path d="M539,65 L539,311 L495.314105,311 L495.314105,113.619469 L402.015178,158.255467 L402.015178,109.964274 L496.00371,65 L539,65 Z M386.616285,65 L386.616285,310.209065 L342.934242,310.209065 L342.934,204.58 L342.425991,204.58084 L342.425991,138.472491 L342.934,138.229 L342.934242,108.535984 L153.10085,108.535984 C125.254248,108.535984 102.680117,131.110115 102.680117,158.956717 L102.680117,310.236581 L59,310.236581 L59,140.6311 C59,98.861197 92.861197,65 134.6311,65 L386.616285,65 Z M172.692018,153.274154 C190.133787,153.274154 204.273135,167.389042 204.273135,184.800638 C204.273135,202.212234 190.133787,216.327121 172.692018,216.327121 C155.25025,216.327121 141.110902,202.212234 141.110902,184.800638 C141.110902,167.389042 155.25025,153.274154 172.692018,153.274154 Z" id="形状结合" fill="#FFFFFF"></path>
    </g>
</svg>