<?xml version="1.0" encoding="UTF-8"?>
<svg width="36px" height="36px" viewBox="0 0 36 36" version="1.1" xmlns="http://www.w3.org/2000/svg" xmlns:xlink="http://www.w3.org/1999/xlink">
    <title>ic_authentication</title>
    <g id="页面-1" stroke="none" stroke-width="1" fill="none" fill-rule="evenodd">
        <g id="8.0切图" transform="translate(-931.000000, -99.000000)" fill-rule="nonzero">
            <g id="ic_authentication" transform="translate(931.000000, 99.000000)">
                <rect id="矩形" fill="#000000" opacity="0" x="0" y="0" width="36" height="36"></rect>
                <path d="M31.8097689,7.91077148 C31.8097689,6.81691406 31.8097689,5.73855469 31.7554525,4.74553711 C30.6636292,5.04606552 29.5426144,5.22813098 28.4118001,5.28858398 C24.0595443,5.55237305 21.0727279,4.1559375 18.3264095,3 C15.2776009,4.76879883 9.65304036,6.10318359 5.04481771,4.74553711 L5.04481771,15.7928613 C5.04481771,17.0341406 4.94397786,18.2754199 5.04481771,19.4778809 C5.3861849,23.2560059 7.81442708,26.0411133 10.2349056,28.1124902 C12.7252399,30.1348768 15.4984139,31.7815297 18.466097,33 C20.1663436,32.2479219 21.8101213,31.3741699 23.3846322,30.3855469 C24.7381486,29.4767414 26.0336528,28.4843845 27.263597,27.4142578 C29.2341048,25.622168 31.22014,23.3413477 31.7476888,20.3545313 C31.7782231,20.12044 31.7937821,19.8846382 31.7942708,19.6485645 L31.8097689,7.91077148 Z M26.1309212,24.6757031 L9.83922201,24.6757031 L9.83922201,23.0387988 L12.1665951,23.0387988 L12.1665951,16.1419629 L13.9198958,16.1419629 L13.9198958,23.0387988 L17.154974,23.0387988 L17.154974,12.844834 L19.04014,12.844834 L19.04014,17.065166 L24.3931185,17.065166 L24.3931185,18.6633105 L19.0401986,18.6633105 L19.0401986,23.0387988 L26.1464486,23.0387988 L26.1309212,24.6757031 Z M25.8826595,15.6454687 C22.8680672,14.3373543 20.1636295,12.4074942 17.9462826,9.98214844 C15.7594484,12.3778858 13.1027986,14.2977474 10.1417708,15.6221777 C9.8022615,15.05186 9.387346,14.5299636 8.90825521,14.0706152 C12.3916243,12.7051758 15.8904329,10.1915918 17.7678646,7.32890625 L19.3892708,8.1046875 C19.2574056,8.31416016 19.1022493,8.50810547 18.9470931,8.71757812 C21.1789041,11.1178709 23.9536026,12.9481733 27.038597,14.0550586 C26.5393812,14.4891422 26.1443088,15.0300575 25.8826888,15.6376758 L25.8826595,15.6454687 Z" id="形状" fill="#FFFFFF"></path>
            </g>
        </g>
    </g>
</svg>