<?xml version="1.0" encoding="UTF-8"?>
<svg width="24px" height="24px" viewBox="0 0 24 24" version="1.1" xmlns="http://www.w3.org/2000/svg" xmlns:xlink="http://www.w3.org/1999/xlink">
    <title>ic_console</title>
    <g id="页面-1" stroke="none" stroke-width="1" fill="none" fill-rule="evenodd">
        <g id="8.0切图" transform="translate(-721.000000, -108.000000)" fill="#FFFFFF" fill-rule="nonzero">
            <g id="ic_console" transform="translate(721.000000, 108.000000)">
                <rect id="矩形" opacity="0" x="0" y="0" width="24" height="24"></rect>
                <path d="M7.375,3.375 C9.584139,3.375 11.375,5.165861 11.375,7.375 L11.375,11.375 L11.375,11.375 L7.375,11.375 C5.165861,11.375 3.375,9.584139 3.375,7.375 C3.375,5.165861 5.165861,3.375 7.375,3.375 Z" id="矩形"></path>
                <path d="M7.375,12.7083333 L11.375,12.7083333 L11.375,12.7083333 L11.375,16.7083333 C11.375,18.9174723 9.584139,20.7083333 7.375,20.7083333 C5.165861,20.7083333 3.375,18.9174723 3.375,16.7083333 C3.375,14.4991943 5.165861,12.7083333 7.375,12.7083333 Z" id="矩形备份-27"></path>
                <path d="M16.7083333,3.375 C18.9174723,3.375 20.7083333,5.165861 20.7083333,7.375 C20.7083333,9.584139 18.9174723,11.375 16.7083333,11.375 L12.7083333,11.375 L12.7083333,11.375 L12.7083333,7.375 C12.7083333,5.165861 14.4991943,3.375 16.7083333,3.375 Z" id="矩形"></path>
                <path d="M12.7083333,12.7083333 L16.7083333,12.7083333 C18.9174723,12.7083333 20.7083333,14.4991943 20.7083333,16.7083333 C20.7083333,18.9174723 18.9174723,20.7083333 16.7083333,20.7083333 C14.4991943,20.7083333 12.7083333,18.9174723 12.7083333,16.7083333 L12.7083333,12.7083333 L12.7083333,12.7083333 Z" id="矩形备份-28"></path>
            </g>
        </g>
    </g>
</svg>