<?xml version="1.0" encoding="UTF-8"?>
<svg width="24px" height="24px" viewBox="0 0 24 24" version="1.1" xmlns="http://www.w3.org/2000/svg" xmlns:xlink="http://www.w3.org/1999/xlink">
    <title>ic_github_s</title>
    <g id="页面-1" stroke="none" stroke-width="1" fill="none" fill-rule="evenodd">
        <g id="8.0切图" transform="translate(-779.000000, -107.000000)" fill="#FFFFFF" fill-rule="nonzero">
            <g id="ic_github_s" transform="translate(779.000000, 107.000000)">
                <rect id="矩形" opacity="0" x="0" y="0" width="24" height="24"></rect>
                <path d="M11.990625,1.78828037 C6.19453125,1.7859375 1.5,6.478125 1.5,12.2695313 C1.5,16.8492188 4.43671875,20.7421875 8.5265625,22.171875 C9.07734375,22.3101562 8.99296875,21.91875 8.99296875,21.6515625 L8.99296875,19.8351563 C5.8125,20.2078125 5.68359375,18.103125 5.4703125,17.7515625 C5.0390625,17.015625 4.01953125,16.828125 4.32421875,16.4765625 C5.0484375,16.1039063 5.78671875,16.5703125 6.6421875,17.8335937 C7.2609375,18.75 8.46796875,18.5953125 9.0796875,18.4429688 C9.21328125,17.8921875 9.49921875,17.4 9.89296875,17.0179688 C6.59765625,16.4273438 5.22421875,14.4164063 5.22421875,12.0257813 C5.22421875,10.865625 5.60625,9.79921875 6.35625,8.9390625 C5.878125,7.52109375 6.40078125,6.30703125 6.47109375,6.1265625 C7.8328125,6.0046875 9.2484375,7.1015625 9.35859375,7.18828125 C10.1320312,6.9796875 11.015625,6.86953125 12.0046875,6.86953125 C12.9984375,6.86953125 13.884375,6.984375 14.6648437,7.1953125 C14.9296875,6.99375 16.2421875,6.0515625 17.5078125,6.16640625 C17.5757812,6.346875 18.0867187,7.5328125 17.6367187,8.93203125 C18.3960937,9.79453125 18.7828125,10.8703125 18.7828125,12.0328125 C18.7828125,14.428125 17.4,16.4414063 14.0953125,17.0226563 C14.6460937,17.5664063 14.9882812,18.3210938 14.9882812,19.1554688 L14.9882812,21.7921875 C15.0070312,22.003125 14.9882812,22.2117188 15.3398437,22.2117188 C19.490625,20.8125 22.4789062,16.8914063 22.4789062,12.271875 C22.4789062,6.478125 17.7820312,1.78828037 11.990625,1.78828037 Z" id="路径"></path>
            </g>
        </g>
    </g>
</svg>