<?xml version="1.0" encoding="UTF-8"?>
<svg width="36px" height="36px" viewBox="0 0 36 36" version="1.1" xmlns="http://www.w3.org/2000/svg" xmlns:xlink="http://www.w3.org/1999/xlink">
    <title>ic_github_b</title>
    <g id="页面-1" stroke="none" stroke-width="1" fill="none" fill-rule="evenodd">
        <g id="8.0切图" transform="translate(-669.000000, -264.000000)" fill-rule="nonzero">
            <g id="ic_github_b" transform="translate(669.000000, 264.000000)">
                <rect id="矩形" fill="#000000" opacity="0" x="0" y="0" width="36" height="36"></rect>
                <path d="M17.9859375,2.68242056 C9.29179687,2.67890625 2.25,9.7171875 2.25,18.4042969 C2.25,25.2738281 6.65507813,31.1132812 12.7898437,33.2578125 C13.6160156,33.4652344 13.4894531,32.878125 13.4894531,32.4773437 L13.4894531,29.7527344 C8.71875,30.3117187 8.52539062,27.1546875 8.20546875,26.6273437 C7.55859375,25.5234375 6.02929688,25.2421875 6.48632812,24.7148438 C7.57265625,24.1558594 8.68007812,24.8554687 9.96328125,26.7503906 C10.8914062,28.125 12.7019531,27.8929687 13.6195312,27.6644531 C13.8199219,26.8382812 14.2488281,26.1 14.8394531,25.5269531 C9.89648438,24.6410156 7.83632812,21.6246094 7.83632812,18.0386719 C7.83632812,16.2984375 8.409375,14.6988281 9.534375,13.4085938 C8.8171875,11.2816406 9.60117187,9.46054688 9.70664062,9.18984375 C11.7492187,9.00703125 13.8726562,10.6523438 14.0378906,10.7824219 C15.1980469,10.4695313 16.5234375,10.3042969 18.0070312,10.3042969 C19.4976562,10.3042969 20.8265625,10.4765625 21.9972656,10.7929688 C22.3945312,10.490625 24.3632812,9.07734375 26.2617187,9.24960938 C26.3636719,9.5203125 27.1300781,11.2992188 26.4550781,13.3980469 C27.5941406,14.6917969 28.1742187,16.3054687 28.1742187,18.0492188 C28.1742187,21.6421875 26.1,24.6621094 21.1429687,25.5339844 C21.9691406,26.3496094 22.4824219,27.4816406 22.4824219,28.7332031 L22.4824219,32.6882813 C22.5105469,33.0046875 22.4824219,33.3175781 23.0097656,33.3175781 C29.2359375,31.21875 33.7183594,25.3371094 33.7183594,18.4078125 C33.7183594,9.7171875 26.6730469,2.68242056 17.9859375,2.68242056 Z" id="路径" fill="#5A636D"></path>
            </g>
        </g>
    </g>
</svg>