<?xml version="1.0" encoding="UTF-8"?>
<svg width="36px" height="36px" viewBox="0 0 36 36" version="1.1" xmlns="http://www.w3.org/2000/svg" xmlns:xlink="http://www.w3.org/1999/xlink">
    <title>ic_weixin</title>
    <g id="页面-1" stroke="none" stroke-width="1" fill="none" fill-rule="evenodd">
        <g id="8.0切图" transform="translate(-739.000000, -264.000000)" fill="#5A636D">
            <path d="M757,264 C766.941125,264 775,272.058875 775,282 C775,291.941125 766.941125,300 757,300 C747.058875,300 739,291.941125 739,282 C739,272.058875 747.058875,264 757,264 Z M761.384143,278.948867 C757.264693,278.948867 753.922132,281.643409 753.922132,284.968018 C753.922132,288.292627 757.261928,290.987169 761.384143,290.987169 C762.23568,290.987169 763.059571,290.869199 763.819872,290.657389 C763.891755,290.63594 763.963638,290.625215 764.038286,290.625215 C764.182052,290.625215 764.311994,290.668114 764.433642,290.735142 L766.067599,291.646728 C766.114599,291.67354 766.158835,291.692308 766.211365,291.692308 C766.277718,291.692308 766.341307,291.668177 766.388307,291.622598 C766.435308,291.577019 766.46019,291.515353 766.46019,291.451005 L766.453227,291.39202 L766.421484,291.27405 C766.41319,291.241877 766.211365,290.515289 766.084187,290.059496 C766.070363,290.008554 766.059304,289.957613 766.059304,289.906671 C766.062069,289.748484 766.145011,289.606384 766.269424,289.517906 C767.842556,288.413278 768.846154,286.783147 768.846154,284.968018 C768.846154,281.643409 765.506358,278.948867 761.384143,278.948867 Z M753.029124,272.307692 C748.085784,272.307692 744.076923,275.541143 744.076923,279.530673 C744.076923,281.705075 745.282346,283.664986 747.170658,284.989467 C747.322718,285.094031 747.422248,285.265624 747.422248,285.461347 C747.422248,285.525694 747.408425,285.584679 747.391836,285.646345 C747.359252,285.762975 747.322605,285.894624 747.285024,286.029896 L747.209544,286.301895 C747.097237,286.707008 746.995295,287.076349 746.988185,287.102202 C746.968832,287.171912 746.941185,287.241621 746.941185,287.314012 C746.941185,287.472199 747.073892,287.603575 747.239776,287.603575 C747.303365,287.603575 747.355895,287.579445 747.411189,287.549952 L749.371384,286.453367 C749.517915,286.370252 749.675505,286.319311 749.846918,286.319311 C749.935389,286.319311 750.023861,286.332716 750.109568,286.356846 C751.024694,286.611554 752.011703,286.753655 753.031889,286.753655 C753.197773,286.753655 753.360892,286.750974 753.524011,286.74293 C753.327715,286.179891 753.222655,285.58736 753.222655,284.97338 C753.222655,281.332397 756.877631,278.383147 761.386908,278.383147 C761.550027,278.383147 761.713146,278.388509 761.873501,278.396553 C761.198906,274.94593 757.49693,272.307692 753.029124,272.307692 Z M758.901414,282.083115 C759.451596,282.083115 759.896718,282.514778 759.896718,283.045643 C759.896718,283.576508 759.448831,284.008171 758.901414,284.008171 C758.351233,284.008171 757.906111,283.576508 757.906111,283.045643 C757.906111,282.514778 758.351233,282.083115 758.901414,282.083115 Z M763.875166,282.083115 C764.425348,282.083115 764.87047,282.514778 764.87047,283.045643 C764.867705,283.576508 764.422583,284.008171 763.875166,284.008171 C763.324985,284.008171 762.879863,283.576508 762.879863,283.045643 C762.879863,282.514778 763.324985,282.083115 763.875166,282.083115 Z M756.015034,276.063964 C756.67304,276.063964 757.209398,276.581424 757.209398,277.219534 C757.209398,277.857644 756.675805,278.375104 756.015034,278.375104 C755.357028,278.375104 754.82067,277.857644 754.82067,277.219534 C754.82067,276.581424 755.357028,276.063964 756.015034,276.063964 Z M750.045979,276.063964 C750.70675,276.063964 751.240343,276.581424 751.240343,277.219534 C751.240343,277.857644 750.703985,278.375104 750.045979,278.375104 C749.387973,278.375104 748.851615,277.857644 748.851615,277.219534 C748.851615,276.581424 749.385208,276.063964 750.045979,276.063964 Z" id="ic_weixin"></path>
        </g>
    </g>
</svg>