<?xml version="1.0" encoding="UTF-8"?>
<svg width="36px" height="36px" viewBox="0 0 36 36" version="1.1" xmlns="http://www.w3.org/2000/svg" xmlns:xlink="http://www.w3.org/1999/xlink">
    <title>ic_zhifubao</title>
    <g id="页面-1" stroke="none" stroke-width="1" fill="none" fill-rule="evenodd">
        <g id="8.0切图" transform="translate(-799.000000, -264.000000)" fill="#5A636D" fill-rule="nonzero">
            <path d="M808.827679,283.354018 C808.032143,283.434375 806.533482,283.783929 805.717857,284.503125 C803.266964,286.632589 804.733482,290.529911 809.695536,290.529911 C812.580357,290.529911 815.461161,288.69375 817.723214,285.748661 C814.500893,284.185714 811.772768,283.064732 808.827679,283.354018 Z M827.329911,286.045982 C831.351786,287.387946 833.545536,287.773661 834.027679,287.845982 C834.658482,286.013839 835,284.049107 835,282 C835,272.059821 826.940179,264 817,264 C807.059821,264 799,272.059821 799,282 C799,291.940179 807.059821,300 817,300 C823.263839,300 828.780357,296.797768 832.006696,291.944196 C828.969196,290.746875 823.424554,288.529018 820.483482,287.11875 C817.675,290.562054 814.050893,292.655357 810.290179,292.655357 C803.925893,292.655357 801.768304,287.106696 804.777679,283.454464 C805.432589,282.658929 806.553571,281.899554 808.285268,281.469643 C810.997321,280.806696 815.316518,281.883482 819.3625,283.213393 C820.089732,281.875446 820.704464,280.404911 821.158482,278.837946 L808.687054,278.837946 L808.687054,277.580357 L815.115625,277.580357 L815.115625,275.322321 L807.329018,275.322321 L807.329018,274.064732 L815.115625,274.064732 L815.115625,270.846429 C815.115625,270.846429 815.115625,270.304018 815.666071,270.304018 L818.808036,270.304018 L818.808036,274.064732 L826.510268,274.064732 L826.510268,275.322321 L818.812054,275.322321 L818.812054,277.580357 L825.095982,277.580357 C824.493304,280.035268 823.58125,282.297321 822.436161,284.282143 C824.344643,284.969196 826.05625,285.620089 827.329911,286.045982 Z" id="ic_zhifubao"></path>
        </g>
    </g>
</svg>