<?xml version="1.0" encoding="UTF-8"?>
<svg width="24px" height="24px" viewBox="0 0 24 24" version="1.1" xmlns="http://www.w3.org/2000/svg" xmlns:xlink="http://www.w3.org/1999/xlink">
    <title>lock</title>
    <g id="页面-1" stroke="none" stroke-width="1" fill="none" fill-rule="evenodd">
        <g id="8.0切图" transform="translate(-907.000000, -270.000000)" fill="#000000" fill-rule="nonzero">
            <g id="lock" transform="translate(907.000000, 270.000000)">
                <rect id="矩形" opacity="0" x="0" y="0" width="24" height="24"></rect>
                <path d="M19.5,10.875 L17.90625,10.875 L17.90625,5.625 C17.90625,3.96796875 16.5632813,2.625 14.90625,2.625 L9.09375,2.625 C7.43671875,2.625 6.09375,3.96796875 6.09375,5.625 L6.09375,10.875 L4.5,10.875 C4.08515625,10.875 3.75,11.2101563 3.75,11.625 L3.75,20.625 C3.75,21.0398437 4.08515625,21.375 4.5,21.375 L19.5,21.375 C19.9148437,21.375 20.25,21.0398437 20.25,20.625 L20.25,11.625 C20.25,11.2101563 19.9148437,10.875 19.5,10.875 Z M7.78125,5.625 C7.78125,4.90078125 8.36953125,4.3125 9.09375,4.3125 L14.90625,4.3125 C15.6304687,4.3125 16.21875,4.90078125 16.21875,5.625 L16.21875,10.875 L7.78125,10.875 L7.78125,5.625 Z M18.5625,19.6875 L5.4375,19.6875 L5.4375,12.5625 L18.5625,12.5625 L18.5625,19.6875 Z M11.34375,16.4296875 L11.34375,17.671875 C11.34375,17.775 11.428125,17.859375 11.53125,17.859375 L12.46875,17.859375 C12.571875,17.859375 12.65625,17.775 12.65625,17.671875 L12.65625,16.4296875 C12.9398438,16.2257812 13.125,15.8929688 13.125,15.515625 C13.125,14.8945312 12.6210938,14.390625 12,14.390625 C11.3789062,14.390625 10.875,14.8945312 10.875,15.515625 C10.875,15.8929688 11.0601562,16.2257812 11.34375,16.4296875 Z" id="形状"></path>
            </g>
        </g>
    </g>
</svg>