<?xml version="1.0" encoding="UTF-8"?>
<svg width="24px" height="24px" viewBox="0 0 24 24" version="1.1" xmlns="http://www.w3.org/2000/svg" xmlns:xlink="http://www.w3.org/1999/xlink">
    <title>user</title>
    <g id="页面-1" stroke="none" stroke-width="1" fill="none" fill-rule="evenodd">
        <g id="8.0切图" transform="translate(-869.000000, -270.000000)" fill="#000000" fill-rule="nonzero">
            <g id="user" transform="translate(869.000000, 270.000000)">
                <rect id="矩形" opacity="0" x="0" y="0" width="24" height="24"></rect>
                <path d="M20.1210938,17.896875 C19.678125,16.846875 19.040625,15.9046875 18.2320313,15.0960937 C17.4234375,14.2875 16.48125,13.6523438 15.43125,13.2070312 C15.421875,13.2023437 15.4125,13.2 15.403125,13.1953125 C16.8632813,12.140625 17.8125,10.4226562 17.8125,8.484375 C17.8125,5.2734375 15.2109375,2.671875 12,2.671875 C8.7890625,2.671875 6.1875,5.2734375 6.1875,8.484375 C6.1875,10.4226562 7.13671875,12.140625 8.596875,13.1976563 C8.5875,13.2023438 8.578125,13.2046875 8.56875,13.209375 C7.51875,13.6523438 6.5765625,14.2875 5.76796875,15.0984375 C4.959375,15.9070313 4.32421875,16.8492188 3.87890625,17.8992188 C3.44296875,18.9257812 3.2109375,20.015625 3.18745233,21.1359375 C3.18515625,21.2414062 3.26953125,21.328125 3.375,21.328125 L4.78125,21.328125 C4.884375,21.328125 4.96640625,21.2460938 4.96875,21.1453125 C5.015625,19.3359375 5.7421875,17.6414063 7.0265625,16.3570313 C8.35546875,15.028125 10.1203125,14.296875 12,14.296875 C13.8796875,14.296875 15.6445313,15.028125 16.9734375,16.3570313 C18.2578125,17.6414063 18.984375,19.3359375 19.03125,21.1453125 C19.0335938,21.2484375 19.115625,21.328125 19.21875,21.328125 L20.625,21.328125 C20.7304688,21.328125 20.8148438,21.2414062 20.8125477,21.1359375 C20.7890625,20.015625 20.5570313,18.9257812 20.1210938,17.896875 Z M12,12.515625 C10.9242188,12.515625 9.91171875,12.0960938 9.15,11.334375 C8.38828125,10.5726563 7.96875,9.56015625 7.96875,8.484375 C7.96875,7.40859375 8.38828125,6.39609375 9.15,5.634375 C9.91171875,4.87265625 10.9242188,4.453125 12,4.453125 C13.0757812,4.453125 14.0882813,4.87265625 14.85,5.634375 C15.6117188,6.39609375 16.03125,7.40859375 16.03125,8.484375 C16.03125,9.56015625 15.6117188,10.5726563 14.85,11.334375 C14.0882813,12.0960938 13.0757812,12.515625 12,12.515625 Z" id="形状"></path>
            </g>
        </g>
    </g>
</svg>